<svg width="1200" height="630" viewBox="0 0 1200 630" fill="none" xmlns="http://www.w3.org/2000/svg">
  <defs>
    <linearGradient id="bg" x1="0" y1="0" x2="1200" y2="630" gradientUnits="userSpaceOnUse">
      <stop offset="0" stop-color="#6D28D9"/>
      <stop offset="1" stop-color="#4F46E5"/>
    </linearGradient>
    <filter id="glow" x="0" y="0" width="1200" height="630" filterUnits="userSpaceOnUse">
      <feGaussianBlur stdDeviation="30" result="blur"/>
      <feColorMatrix in="blur" type="matrix" values="0 0 0 0 0.67 0 0 0 0 0.56 0 0 0 0 1 0 0 0 0.6 0"/>
      <feBlend in="SourceGraphic" mode="screen"/>
    </filter>
  </defs>
  <rect width="1200" height="630" fill="url(#bg)"/>
  <g filter="url(#glow)">
    <circle cx="220" cy="110" r="140" fill="#A78BFA" opacity="0.35"/>
    <circle cx="1080" cy="520" r="180" fill="#C4B5FD" opacity="0.25"/>
  </g>
  <rect x="120" y="120" width="960" height="390" rx="36" fill="white" fill-opacity="0.12" stroke="white" stroke-opacity="0.2"/>
  <g>
    <rect x="180" y="180" width="64" height="64" rx="16" fill="white" fill-opacity="0.2"/>
    <path d="M213 196C206.372 196 201 201.372 201 208V236C201 242.628 206.372 248 213 248H240C246.628 248 252 242.628 252 236V208C252 201.372 246.628 196 240 196H213Z" fill="white" fill-opacity="0.8"/>
    <path d="M214 205H239C241.209 205 243 206.791 243 209V233C243 235.209 241.209 237 239 237H214C211.791 237 210 235.209 210 233V209C210 206.791 211.791 205 214 205Z" fill="#6D28D9"/>
    <path d="M226 212C231.523 212 236 216.477 236 222C236 227.523 231.523 232 226 232C220.477 232 216 227.523 216 222C216 216.477 220.477 212 226 212Z" fill="white"/>
  </g>
  <text x="180" y="310" font-family="Plus Jakarta Sans, Inter, Arial, sans-serif" font-size="52" font-weight="800" fill="white">
    Free 1 Month Pro
  </text>
  <text x="180" y="370" font-family="Plus Jakarta Sans, Inter, Arial, sans-serif" font-size="28" font-weight="600" fill="white" fill-opacity="0.92">
    Join Vault Vibe with an invite link.
  </text>
  <text x="180" y="420" font-family="Plus Jakarta Sans, Inter, Arial, sans-serif" font-size="22" font-weight="500" fill="white" fill-opacity="0.8">
    Save snippets, prompts, and assets in one place.
  </text>
</svg>
